<svg width="600" height="552" viewBox="0 0 600 552" fill="none" xmlns="http://www.w3.org/2000/svg">
<path d="M541.918 29.704H84.4729V34.9052H541.918V29.704Z" fill="#CBCBCB"/>
<path d="M155.911 31.6638H153.622V196.967H155.911V31.6638Z" fill="#CBCBCB"/>
<path d="M343.672 327.996H225.71V31.5009H228V322.794H343.672V327.996Z" fill="#CBCBCB"/>
<path d="M305.529 31.6638H303.24V196.967H305.529V31.6638Z" fill="#CBCBCB"/>
<path d="M343.944 325.531H341.654V490.835H343.944V325.531Z" fill="#CBCBCB"/>
<path d="M401.496 31.6638H399.206V196.967H401.496V31.6638Z" fill="#CBCBCB"/>
<path d="M479.975 31.6638H477.685V196.967H479.975V31.6638Z" fill="#CBCBCB"/>
<path d="M176.779 222.253H133.304V260.733H176.779V222.253Z" fill="#2962FF"/>
<path d="M325.591 222.253H282.117V260.733H325.591V222.253Z" fill="#3F3D56"/>
<path d="M422.569 222.253H379.095V260.733H422.569V222.253Z" fill="#CBCBCB"/>
<path d="M498.121 222.253H454.647V260.733H498.121V222.253Z" fill="#2962FF"/>
<path d="M600 14.2037H556.526V52.6841H600V14.2037Z" fill="#3F3D56"/>
<path d="M364.512 513.52H321.037V552H364.512V513.52Z" fill="#3F3D56"/>
<path d="M69.6924 0H0V61.6869H69.6924V0Z" fill="#2962FF"/>
</svg>
